<svg width="435" height="120" viewBox="0 0 435 120" fill="none" xmlns="http://www.w3.org/2000/svg">
<path d="M408.219 85.3255C406.002 85.3255 404.141 84.824 402.568 83.8927C400.994 82.9613 399.706 81.6718 398.704 80.0957C397.703 78.5195 396.916 76.7285 396.486 74.7942C396.057 72.7882 395.771 70.7822 395.771 68.8479C395.771 66.6986 395.986 64.6927 396.415 62.6867C396.844 60.6807 397.56 58.9613 398.49 57.4569C399.42 55.9524 400.707 54.7345 402.353 53.8031C403.927 52.8718 405.93 52.4419 408.219 52.4419C410.509 52.4419 412.44 52.8718 414.014 53.8031C415.517 54.7345 416.804 55.9524 417.734 57.4569C418.665 58.9613 419.38 60.6807 419.809 62.6151C420.238 64.5494 420.382 66.627 420.382 68.7763C420.382 70.9255 420.167 72.9315 419.809 74.9375C419.38 76.9434 418.736 78.7345 417.806 80.2389C416.876 81.8151 415.66 83.033 414.086 83.9643C412.512 84.8957 410.58 85.3255 408.219 85.3255ZM404.785 95.8569C408.148 95.8569 411.224 95.2121 413.871 93.9942C416.59 92.7763 418.736 90.7703 420.382 87.9763H420.596V94.5673H434.046V23.427H419.881V49.3613H419.666C418.092 46.8539 415.874 44.9195 413.156 43.63C410.437 42.3404 407.504 41.6957 404.428 41.6957C400.636 41.6957 397.345 42.4121 394.483 43.9166C391.622 45.421 389.261 47.3554 387.401 49.8628C385.54 52.2986 384.11 55.1643 383.108 58.3882C382.178 61.6121 381.677 64.9792 381.677 68.4181C381.677 72.0001 382.178 75.4389 383.108 78.8061C384.038 82.1016 385.469 85.039 387.401 87.6181C389.261 90.1972 391.693 92.2031 394.626 93.7076C397.56 95.1404 400.922 95.8569 404.785 95.8569ZM340.827 94.5673V67.5583C340.827 62.3285 341.685 58.5315 343.402 56.2389C345.119 53.9464 347.909 52.8001 351.773 52.8001C355.135 52.8001 357.496 53.8748 358.855 55.9524C360.215 58.03 360.858 61.1822 360.858 65.4807V94.5673H375.024V62.9016C375.024 59.6777 374.738 56.8121 374.165 54.1613C373.593 51.5106 372.591 49.2897 371.232 47.4986C369.873 45.636 367.941 44.2748 365.509 43.2001C363.076 42.1972 360 41.624 356.208 41.624C353.203 41.624 350.27 42.3404 347.48 43.7016C344.618 45.0628 342.329 47.2121 340.541 50.221H340.254V43.0569H326.804V94.5673H340.827ZM317.862 94.5673V43.0569H303.696V94.5673H317.862ZM317.862 35.1046V23.427H303.696V35.1046H317.862ZM248.537 94.5673L257.265 59.9643H257.48L266.638 94.5673H281.161L297.401 43.0569H282.878L273.434 77.9464H273.219L264.491 43.0569H250.755L242.17 78.018H241.955L232.512 43.0569H217.56L233.871 94.5673H248.537ZM211.192 94.5673V43.0569H197.027V94.5673H211.192ZM211.192 35.1046V23.427H197.027V35.1046H211.192ZM179.642 94.5673V52.5136H189.372V43.0569H179.642V39.9763C179.642 37.827 180.072 36.3225 180.859 35.4628C181.717 34.5315 183.076 34.1016 185.008 34.1016C186.797 34.1016 188.514 34.1733 190.159 34.3882V23.8569C188.943 23.7852 187.727 23.7136 186.51 23.6419C185.223 23.5703 184.006 23.4986 182.719 23.4986C176.924 23.4986 172.631 24.9315 169.769 27.8688C166.908 30.8061 165.477 34.5315 165.477 39.1166V43.1285H157.035V52.5852H165.477V94.6389H179.642V94.5673Z" fill="white"/>
<path d="M47.003 66.9849H28.2589C25.898 66.9849 23.9664 65.0506 23.9664 62.6864C23.9664 60.3222 25.898 58.3879 28.2589 58.3879H47.003C49.3639 58.3879 51.2955 60.3222 51.2955 62.6864C51.2955 65.0506 49.3639 66.9849 47.003 66.9849ZM28.2589 47.57C25.898 47.57 23.9664 45.6357 23.9664 43.2715C23.9664 40.9073 25.898 38.973 28.2589 38.973H52.7979C55.1588 38.973 57.0904 40.9073 57.0904 43.2715C57.0904 45.6357 55.1588 47.57 52.7979 47.57H28.2589ZM56.2319 89.6954C53.9425 88.979 52.6548 86.6148 53.3702 84.3222L66.534 41.1222C67.2494 38.8297 69.6103 37.5401 71.8996 38.2566C74.189 38.973 75.4767 41.3372 74.7613 43.6297L61.5976 86.8297C60.8821 89.1222 58.5212 90.4118 56.2319 89.6954ZM94.4354 43.6297L81.2716 86.8297C80.5562 89.1222 78.1953 90.4118 75.906 89.6954C73.6166 88.979 72.3289 86.6148 73.0443 84.3222L86.208 41.1222C86.9235 38.8297 89.2843 37.5401 91.5737 38.2566C93.863 38.973 95.1508 41.4088 94.4354 43.6297Z" fill="#EFB41D"/>
<path d="M59.8807 120C26.8283 120 0 93.0627 0 60.0358C0 27.009 26.8283 0 59.8807 0C92.9332 0 119.761 26.9373 119.761 59.9642C119.761 92.991 92.9332 120 59.8807 120ZM59.8807 7.59403C31.0493 7.59403 7.58346 31.0925 7.58346 59.9642C7.58346 88.8358 31.0493 112.334 59.8807 112.334C88.7122 112.334 112.178 88.8358 112.178 59.9642C112.178 31.0925 88.7122 7.59403 59.8807 7.59403Z" fill="#EFB41D"/>
</svg>
