<svg width="468" height="468" viewBox="0 0 468 468" fill="none" xmlns="http://www.w3.org/2000/svg">
<path d="M467.489 248.509C467.773 244.248 468 238.417 468 233.87C468 228.758 467.796 223.45 467.35 217.17C463.095 158.171 436.659 102.973 393.353 62.6805C350.05 22.3885 293.095 -0.00702497 233.95 1.65296e-06C174.804 0.00702827 117.855 22.4161 74.561 62.7183C31.2676 103.021 4.84237 158.226 0.602369 217.226C-3.63764 276.225 14.6222 334.643 51.7079 380.722C88.7938 426.801 141.953 457.126 200.491 465.59C259.028 474.057 318.601 460.037 367.22 426.353C415.839 392.668 449.898 341.817 462.545 284.034C462.545 284.034 463.289 281.173 463.908 277.785C465.441 269.097 467.088 256.012 467.489 248.509ZM233.79 438.83C193.877 438.841 154.83 427.199 121.441 405.33C88.0528 383.46 61.776 352.315 45.8369 315.722C29.8979 279.126 24.9906 238.673 31.7172 199.328C38.4438 159.982 56.5116 123.458 83.7026 94.2381C110.893 65.0183 146.024 44.3747 184.781 34.8419C223.539 25.3091 264.236 27.3019 301.876 40.5756C339.517 53.8495 372.462 77.8267 396.67 109.563C420.877 141.3 435.29 179.415 438.141 219.229C438.488 224.072 438.726 228.94 438.726 233.87C438.726 238.801 438.488 243.666 438.141 248.509H259.005C255.783 254.089 250.81 258.45 244.857 260.915C238.904 263.381 232.303 263.813 226.08 262.145C219.856 260.476 214.357 256.801 210.435 251.689C206.512 246.577 204.386 240.313 204.386 233.869C204.386 227.425 206.512 221.161 210.435 216.049C214.357 210.936 219.856 207.261 226.08 205.593C232.303 203.925 238.904 204.357 244.857 206.823C250.81 209.288 255.783 213.649 259.005 219.229H408.796C405.15 175.313 385.146 134.369 352.742 104.506C320.342 74.6442 277.904 58.0431 233.841 57.9917C189.779 57.9403 147.304 74.4423 114.832 104.229C82.3597 134.015 62.2587 174.914 58.5112 218.821C54.7636 262.728 67.6429 306.44 94.5977 341.301C121.552 376.161 160.616 399.624 204.05 407.042C247.484 414.458 292.118 405.29 329.114 381.353C366.11 357.416 392.762 320.454 403.798 277.791H433.944C423.93 323.43 398.627 364.275 362.225 393.563C325.823 422.851 280.509 438.821 233.79 438.83ZM233.79 146.043C218.368 146.024 203.214 150.067 189.851 157.763C176.488 165.46 165.387 176.54 157.664 189.89C149.941 203.239 145.869 218.386 145.857 233.809C145.845 249.231 149.894 264.385 157.597 277.746C165.299 291.106 176.383 302.205 189.735 309.922C203.086 317.639 218.234 321.703 233.655 321.709C249.076 321.715 264.227 317.656 277.583 309.948C290.94 302.237 302.03 291.148 309.74 277.791H342.198C332.005 302.984 313.37 323.848 289.486 336.807C265.599 349.767 237.95 354.016 211.276 348.824C184.602 343.632 160.565 329.323 143.282 308.352C125.999 287.377 116.548 261.047 116.548 233.87C116.548 206.693 125.999 180.362 143.282 159.39C160.565 138.418 184.602 124.109 211.276 118.918C237.95 113.726 265.599 117.974 289.486 130.933C313.37 143.892 332.005 164.756 342.198 189.95H309.734C302.047 176.605 290.98 165.52 277.645 157.813C264.312 150.105 249.184 146.045 233.784 146.043H233.79Z" fill="url(#paint0_linear_109_6)"/>
<defs>
<linearGradient id="paint0_linear_109_6" x1="234" y1="0" x2="234" y2="468" gradientUnits="userSpaceOnUse">
<stop stop-color="#4E80EE"/>
<stop offset="1" stop-color="#2D4988"/>
</linearGradient>
</defs>
</svg>
