<?xml version="1.0" encoding="UTF-8"?>
<svg xmlns="http://www.w3.org/2000/svg" xmlns:xlink="http://www.w3.org/1999/xlink" width="317" zoomAndPan="magnify" viewBox="0 0 238.08 94.499996" height="125" preserveAspectRatio="xMidYMid meet" version="1.0">
  <defs>
    <clipPath id="87cc61521e">
      <path d="M 9.546875 27.867188 L 227.679688 27.867188 L 227.679688 68.070312 L 9.546875 68.070312 Z M 9.546875 27.867188 " clip-rule="nonzero"></path>
    </clipPath>
  </defs>
  <g clip-path="url(#87cc61521e)">
    <path fill="#87fd2f" d="M 86.875 54.019531 L 86.875 62.414062 L 61.039062 62.441406 L 60.988281 33.566406 L 69.332031 33.566406 L 69.332031 54.046875 Z M 119.417969 53.996094 L 119.417969 62.390625 L 90.667969 62.441406 L 90.617188 33.539062 L 119.34375 33.488281 L 119.34375 41.882812 L 98.960938 41.910156 L 98.960938 43.78125 L 119.367188 43.753906 L 119.367188 52.140625 L 98.960938 52.167969 L 98.960938 54.039062 Z M 160.179688 33.476562 L 160.203125 62.375 L 151.859375 62.375 L 151.859375 50.164062 L 145.328125 62.476562 L 137.988281 62.476562 L 131.40625 50.1875 L 131.40625 62.425781 L 123.085938 62.425781 L 123.085938 33.527344 L 131.984375 33.527344 L 141.65625 51.636719 L 151.28125 33.507812 Z M 193.960938 47.929688 C 193.960938 48.878906 193.871094 49.820312 193.6875 50.75 C 193.503906 51.683594 193.234375 52.585938 192.875 53.464844 C 192.515625 54.339844 192.074219 55.175781 191.550781 55.964844 C 191.027344 56.753906 190.433594 57.484375 189.765625 58.15625 C 189.097656 58.828125 188.375 59.429688 187.589844 59.957031 C 186.804688 60.484375 185.976562 60.929688 185.105469 61.292969 C 184.234375 61.65625 183.335938 61.929688 182.414062 62.117188 C 181.488281 62.300781 180.554688 62.394531 179.609375 62.394531 L 177.023438 62.394531 C 176.078125 62.394531 175.144531 62.304688 174.21875 62.121094 C 173.292969 61.941406 172.394531 61.667969 171.523438 61.308594 C 170.652344 60.945312 169.824219 60.503906 169.039062 59.976562 C 168.253906 59.453125 167.527344 58.855469 166.859375 58.1875 C 166.191406 57.515625 165.59375 56.789062 165.066406 56 C 164.542969 55.214844 164.097656 54.382812 163.734375 53.507812 C 163.371094 52.632812 163.097656 51.730469 162.910156 50.800781 C 162.722656 49.871094 162.628906 48.929688 162.625 47.980469 C 162.625 47.03125 162.714844 46.09375 162.894531 45.164062 C 163.078125 44.230469 163.347656 43.328125 163.707031 42.449219 C 164.0625 41.574219 164.503906 40.738281 165.023438 39.949219 C 165.546875 39.160156 166.140625 38.425781 166.804688 37.753906 C 167.46875 37.082031 168.191406 36.480469 168.976562 35.953125 C 169.757812 35.421875 170.585938 34.976562 171.453125 34.609375 C 172.324219 34.242188 173.222656 33.96875 174.144531 33.78125 C 175.070312 33.59375 176.003906 33.496094 176.945312 33.492188 L 179.558594 33.492188 C 180.503906 33.492188 181.4375 33.582031 182.367188 33.761719 C 183.292969 33.945312 184.191406 34.21875 185.066406 34.578125 C 185.9375 34.941406 186.769531 35.382812 187.554688 35.910156 C 188.339844 36.4375 189.070312 37.035156 189.738281 37.707031 C 190.40625 38.375 191.003906 39.105469 191.527344 39.894531 C 192.054688 40.683594 192.5 41.519531 192.859375 42.394531 C 193.222656 43.273438 193.496094 44.175781 193.679688 45.109375 C 193.867188 46.039062 193.960938 46.980469 193.960938 47.929688 Z M 185.640625 47.929688 C 185.640625 47.53125 185.601562 47.140625 185.523438 46.75 C 185.445312 46.359375 185.328125 45.980469 185.175781 45.613281 C 185.027344 45.242188 184.839844 44.894531 184.621094 44.5625 C 184.398438 44.234375 184.148438 43.925781 183.871094 43.644531 C 183.589844 43.363281 183.285156 43.113281 182.957031 42.890625 C 182.628906 42.667969 182.28125 42.484375 181.914062 42.328125 C 181.550781 42.175781 181.171875 42.0625 180.785156 41.984375 C 180.398438 41.902344 180.003906 41.863281 179.609375 41.863281 L 177.023438 41.863281 C 176.625 41.863281 176.234375 41.902344 175.84375 41.980469 C 175.457031 42.058594 175.078125 42.171875 174.714844 42.324219 C 174.347656 42.476562 174 42.664062 173.671875 42.886719 C 173.339844 43.105469 173.035156 43.359375 172.757812 43.640625 C 172.476562 43.921875 172.226562 44.230469 172.007812 44.558594 C 171.785156 44.890625 171.601562 45.242188 171.449219 45.609375 C 171.296875 45.976562 171.183594 46.355469 171.105469 46.746094 C 171.027344 47.136719 170.988281 47.53125 170.992188 47.929688 C 170.988281 48.328125 171.027344 48.722656 171.105469 49.113281 C 171.183594 49.503906 171.296875 49.886719 171.449219 50.253906 C 171.601562 50.621094 171.785156 50.972656 172.007812 51.300781 C 172.226562 51.632812 172.476562 51.941406 172.757812 52.222656 C 173.035156 52.503906 173.339844 52.753906 173.671875 52.976562 C 174 53.199219 174.347656 53.386719 174.714844 53.539062 C 175.078125 53.691406 175.457031 53.804688 175.84375 53.882812 C 176.234375 53.960938 176.625 54 177.023438 54 L 179.585938 54 C 179.980469 54 180.375 53.960938 180.761719 53.882812 C 181.152344 53.804688 181.53125 53.691406 181.898438 53.539062 C 182.265625 53.386719 182.613281 53.199219 182.941406 52.980469 C 183.273438 52.757812 183.578125 52.507812 183.859375 52.222656 C 184.140625 51.941406 184.390625 51.636719 184.613281 51.304688 C 184.832031 50.972656 185.019531 50.625 185.171875 50.253906 C 185.328125 49.886719 185.441406 49.507812 185.519531 49.117188 C 185.601562 48.726562 185.640625 48.332031 185.640625 47.929688 Z M 227.628906 62.410156 L 218.15625 62.410156 L 204.585938 45.492188 L 204.609375 62.433594 L 196.265625 62.433594 L 196.214844 33.535156 L 205.691406 33.535156 L 219.261719 50.5 L 219.210938 33.535156 L 227.554688 33.535156 Z M 29.578125 27.867188 C 28.921875 27.867188 28.269531 27.898438 27.617188 27.964844 C 26.96875 28.027344 26.320312 28.125 25.679688 28.253906 C 25.039062 28.382812 24.402344 28.542969 23.777344 28.734375 C 23.152344 28.925781 22.535156 29.144531 21.929688 29.398438 C 21.328125 29.648438 20.734375 29.929688 20.160156 30.242188 C 19.582031 30.550781 19.019531 30.890625 18.476562 31.253906 C 17.933594 31.621094 17.40625 32.011719 16.902344 32.429688 C 16.394531 32.847656 15.914062 33.289062 15.449219 33.753906 C 14.988281 34.222656 14.546875 34.707031 14.132812 35.21875 C 13.71875 35.726562 13.328125 36.253906 12.964844 36.800781 C 12.601562 37.347656 12.265625 37.914062 11.957031 38.492188 C 11.648438 39.074219 11.367188 39.667969 11.117188 40.277344 C 10.867188 40.886719 10.648438 41.503906 10.457031 42.132812 C 10.269531 42.765625 10.109375 43.402344 9.980469 44.046875 C 9.855469 44.691406 9.757812 45.34375 9.695312 46 C 9.628906 46.652344 9.597656 47.3125 9.597656 47.96875 C 9.597656 48.628906 9.628906 49.285156 9.695312 49.9375 C 9.757812 50.59375 9.855469 51.246094 9.980469 51.890625 C 10.109375 52.535156 10.269531 53.175781 10.457031 53.804688 C 10.648438 54.433594 10.867188 55.054688 11.117188 55.660156 C 11.367188 56.269531 11.648438 56.863281 11.957031 57.445312 C 12.265625 58.023438 12.601562 58.589844 12.964844 59.136719 C 13.328125 59.683594 13.71875 60.210938 14.132812 60.722656 C 14.546875 61.230469 14.988281 61.71875 15.449219 62.183594 C 15.914062 62.648438 16.394531 63.089844 16.902344 63.507812 C 17.40625 63.925781 17.933594 64.316406 18.476562 64.683594 C 19.019531 65.046875 19.582031 65.386719 20.160156 65.695312 C 20.734375 66.007812 21.328125 66.289062 21.929688 66.539062 C 22.535156 66.792969 23.152344 67.011719 23.777344 67.203125 C 24.402344 67.394531 25.039062 67.554688 25.679688 67.683594 C 26.320312 67.8125 26.96875 67.910156 27.617188 67.972656 C 28.269531 68.039062 28.921875 68.070312 29.578125 68.070312 C 30.230469 68.070312 30.882812 68.039062 31.535156 67.972656 C 32.1875 67.910156 32.832031 67.8125 33.472656 67.683594 C 34.117188 67.554688 34.75 67.394531 35.375 67.203125 C 36.003906 67.011719 36.617188 66.792969 37.222656 66.539062 C 37.828125 66.289062 38.417969 66.007812 38.996094 65.695312 C 39.570312 65.386719 40.132812 65.046875 40.675781 64.683594 C 41.21875 64.316406 41.746094 63.925781 42.25 63.507812 C 42.757812 63.089844 43.242188 62.648438 43.703125 62.183594 C 44.167969 61.71875 44.605469 61.230469 45.019531 60.722656 C 45.433594 60.210938 45.824219 59.683594 46.1875 59.136719 C 46.550781 58.589844 46.886719 58.023438 47.195312 57.445312 C 47.503906 56.863281 47.785156 56.269531 48.035156 55.660156 C 48.285156 55.054688 48.503906 54.433594 48.695312 53.804688 C 48.886719 53.175781 49.042969 52.535156 49.171875 51.890625 C 49.300781 51.246094 49.394531 50.59375 49.460938 49.9375 C 49.523438 49.285156 49.554688 48.628906 49.554688 47.96875 C 49.554688 47.3125 49.523438 46.65625 49.457031 46 C 49.394531 45.34375 49.296875 44.695312 49.167969 44.046875 C 49.039062 43.402344 48.882812 42.765625 48.691406 42.136719 C 48.5 41.507812 48.28125 40.886719 48.03125 40.28125 C 47.777344 39.671875 47.5 39.078125 47.191406 38.496094 C 46.882812 37.917969 46.546875 37.351562 46.183594 36.804688 C 45.820312 36.257812 45.429688 35.730469 45.015625 35.222656 C 44.601562 34.714844 44.160156 34.226562 43.699219 33.761719 C 43.234375 33.296875 42.75 32.855469 42.246094 32.4375 C 41.742188 32.019531 41.214844 31.625 40.671875 31.261719 C 40.128906 30.894531 39.566406 30.558594 38.992188 30.246094 C 38.414062 29.9375 37.824219 29.65625 37.21875 29.402344 C 36.613281 29.152344 36 28.929688 35.375 28.738281 C 34.75 28.546875 34.113281 28.386719 33.472656 28.257812 C 32.832031 28.128906 32.183594 28.03125 31.535156 27.964844 C 30.882812 27.902344 30.230469 27.867188 29.578125 27.867188 Z M 40.054688 48.90625 C 39.929688 49.011719 39.785156 49.097656 39.628906 49.15625 C 39.449219 49.230469 39.265625 49.28125 39.074219 49.308594 C 38.640625 49.378906 38.203125 49.367188 37.769531 49.285156 C 36.78125 49.078125 35.859375 48.707031 35.003906 48.171875 C 34.117188 47.617188 33.285156 46.984375 32.515625 46.273438 C 32.148438 45.921875 31.769531 45.542969 31.386719 45.136719 C 31.035156 44.757812 30.65625 44.328125 30.332031 43.898438 C 30.261719 43.808594 30.171875 43.75 30.0625 43.730469 C 29.949219 43.710938 29.847656 43.734375 29.753906 43.796875 C 29.648438 43.863281 29.585938 43.953125 29.554688 44.070312 C 29.527344 44.1875 29.542969 44.300781 29.601562 44.402344 C 29.902344 44.882812 30.230469 45.339844 30.558594 45.792969 C 30.882812 46.25 31.261719 46.679688 31.636719 47.109375 C 32.394531 47.972656 33.234375 48.746094 34.148438 49.4375 C 35.109375 50.164062 36.167969 50.703125 37.316406 51.054688 C 37.707031 51.15625 38.097656 51.230469 38.496094 51.28125 C 38.582031 51.285156 38.652344 51.320312 38.707031 51.386719 C 38.761719 51.449219 38.785156 51.523438 38.773438 51.609375 C 38.773438 51.660156 38.757812 51.699219 38.722656 51.738281 C 38.0625 52.855469 37.277344 53.875 36.363281 54.796875 C 33.574219 57.601562 30.003906 59.144531 26.761719 59.144531 C 25.386719 59.167969 24.082031 58.882812 22.839844 58.285156 L 22.566406 58.160156 C 22.464844 58.105469 22.363281 58.105469 22.261719 58.160156 L 22.011719 58.335938 C 21.59375 58.617188 21.132812 58.757812 20.628906 58.765625 C 20.195312 58.789062 19.828125 58.648438 19.523438 58.335938 C 18.996094 57.804688 18.972656 56.792969 19.5 55.910156 L 19.648438 55.628906 C 19.703125 55.527344 19.703125 55.429688 19.648438 55.328125 L 19.5 55.046875 C 18.117188 52.417969 18.21875 48.957031 19.625 45.742188 C 19.660156 45.667969 19.714844 45.613281 19.792969 45.582031 C 19.875 45.554688 19.949219 45.558594 20.027344 45.59375 C 20.105469 45.617188 20.15625 45.667969 20.179688 45.742188 C 20.464844 46.445312 20.816406 47.109375 21.234375 47.742188 C 21.863281 48.707031 22.59375 49.59375 23.417969 50.394531 C 23.816406 50.800781 24.234375 51.179688 24.675781 51.535156 C 25.101562 51.886719 25.554688 52.242188 26.007812 52.570312 C 26.101562 52.644531 26.207031 52.671875 26.324219 52.660156 C 26.441406 52.644531 26.539062 52.589844 26.609375 52.496094 C 26.683594 52.402344 26.714844 52.292969 26.699219 52.175781 C 26.683594 52.058594 26.628906 51.960938 26.535156 51.886719 C 26.132812 51.535156 25.730469 51.15625 25.355469 50.777344 C 24.976562 50.394531 24.625 49.992188 24.273438 49.585938 C 23.605469 48.777344 23.019531 47.910156 22.515625 46.984375 C 22.03125 46.097656 21.71875 45.152344 21.585938 44.152344 C 21.507812 43.714844 21.507812 43.273438 21.585938 42.835938 C 21.632812 42.664062 21.691406 42.496094 21.761719 42.332031 L 21.863281 42.179688 C 22.152344 41.824219 22.460938 41.488281 22.792969 41.167969 C 26.886719 37.019531 32.59375 35.65625 36.613281 37.828125 L 36.914062 37.980469 C 37.015625 38.035156 37.117188 38.035156 37.214844 37.980469 L 37.492188 37.804688 C 38.421875 37.199219 39.476562 37.171875 40.054688 37.753906 C 40.632812 38.335938 40.609375 39.449219 39.957031 40.410156 L 39.753906 40.660156 C 39.691406 40.757812 39.683594 40.859375 39.730469 40.964844 L 39.878906 41.269531 C 40.910156 43.46875 40.960938 46.199219 40.054688 48.90625 Z M 40.054688 48.90625 " fill-opacity="1" fill-rule="nonzero"></path>
  </g>
</svg>
